<svg xmlns="http://www.w3.org/2000/svg" xmlns:xlink="http://www.w3.org/1999/xlink" width="66" height="66" viewBox="0 0 66 66">
    <defs>
        <path id="a" d="M49.971 13.029V63H.002V13.029z"/>
    </defs>
    <g fill="none" fill-rule="evenodd" transform="translate(7)">
        <path fill="#FFF" d="M12 0v6.866L24.18 14 37 6.866V0z"/>
        <mask id="b" fill="#fff">
            <use xlink:href="#a"/>
        </mask>
        <path fill="#FFF" d="M36.77 35.897l-3.854 3.764a1.853 1.853 0 0 0-.53 1.636l.918 5.31c.26 1.507-1.32 2.656-2.674 1.946l-4.773-2.5a1.838 1.838 0 0 0-1.717.001l-4.767 2.512c-1.352.714-2.935-.433-2.679-1.94l.906-5.312c.102-.6-.097-1.21-.533-1.632l-3.863-3.757c-1.095-1.067-.495-2.927 1.018-3.148l5.334-.78c.599-.089 1.12-.466 1.387-1.01l2.38-4.837c.674-1.372 2.628-1.374 3.306-.004l2.391 4.832c.27.544.789.918 1.39 1.005l5.334.769c1.514.219 2.12 2.076 1.026 3.145M24.985 13.029C11.186 13.029 0 24.215 0 38.014 0 51.814 11.186 63 24.985 63c13.8 0 24.987-11.187 24.987-24.986 0-13.8-11.187-24.985-24.987-24.985" mask="url(#b)"/>
    </g>
</svg>
