<svg xmlns="http://www.w3.org/2000/svg" width="66" height="66" viewBox="0 0 66 66">
    <path fill="#E79E44" fill-rule="evenodd" d="M37.215 27.393c0 1.625-1.531 2.944-3.421 2.944s-3.421-1.319-3.421-2.944l-1.579-10.359c0-2.582 3.11-3.698 5-3.698 1.89 0 5 1.303 5 3.698l-1.579 10.359zm-3.671 14.444a3.75 3.75 0 1 1 0-7.5 3.75 3.75 0 0 1 0 7.5zM54.206 5H12.794c-5.523 0-10 4.477-10 10v25.109c0 5.523 4.477 10 10 10h12.662l5.304 8.782a4 4 0 0 0 5.657 0l5.243-8.782h12.546c5.523 0 10-4.477 10-10V15c0-5.523-4.477-10-10-10z"/>
</svg>
