<svg xmlns="http://www.w3.org/2000/svg" width="66" height="66" viewBox="0 0 66 66">
    <g fill="#FFF" fill-rule="evenodd">
        <path d="M31.983 23.82l-.993.95-.972-.938c-2.519-2.43-6.61-2.428-9.129 0a6.113 6.113 0 0 0 0 8.838c3.124 3.011 6.25 6.02 9.373 9.031a1.078 1.078 0 0 0 1.49 0l9.36-9.043a6.114 6.114 0 0 0 0-8.837A6.551 6.551 0 0 0 36.553 22c-1.65 0-3.31.607-4.57 1.82"/>
        <path d="M30 3.709C15.502 3.709 3.708 15.503 3.708 30s11.794 26.291 26.29 26.291c14.498 0 26.292-11.794 26.292-26.291S44.497 3.709 30 3.709M30 59C14.01 59 1 45.99 1 30S14.009 1 30 1c15.99 0 29 13.01 29 29S45.99 59 30 59"/>
        <path d="M52.757 47l10.258 10.215a3.407 3.407 0 0 1 0 4.792 3.348 3.348 0 0 1-4.759 0L48 51.794"/>
    </g>
</svg>
